<?xml version="1.0" encoding="UTF-8" standalone="no"?>
<!-- Created with Inkscape (http://www.inkscape.org/) -->
<svg xmlns:svg="http://www.w3.org/2000/svg" xmlns="http://www.w3.org/2000/svg" xmlns:xlink="http://www.w3.org/1999/xlink" version="1.1" width="128" height="112" id="svg2">
  <defs id="defs6">
    <linearGradient id="linearGradient3624">
      <stop id="stop3626" style="stop-color:#b7b4a7;stop-opacity:1" offset="0"/>
      <stop id="stop3628" style="stop-color:#e8e8e4;stop-opacity:1" offset="1"/>
    </linearGradient>
    <linearGradient x1="61.917576" y1="104.45963" x2="61.917576" y2="7.4596353" id="linearGradient4331" xlink:href="#linearGradient3624" gradientUnits="userSpaceOnUse" gradientTransform="translate(2.082426,0.040364)" spreadMethod="pad"/>
    <filter x="-0.5" y="-0.5" width="2" height="2" color-interpolation-filters="sRGB" id="filter3722">
      <feGaussianBlur stdDeviation="1.5" result="result6" id="feGaussianBlur3724"/>
      <feComposite in2="result6" operator="atop" in="SourceGraphic" result="result8" id="feComposite3726"/>
      <feComposite in2="SourceAlpha" operator="atop" in="result8" result="fbSourceGraphic" id="feComposite3728"/>
      <feColorMatrix id="feColorMatrix3856" values="0 0 0 -1 0 0 0 0 -1 0 0 0 0 -1 0 0 0 0 1 0" in="fbSourceGraphic" result="fbSourceGraphicAlpha"/>
      <feGaussianBlur result="blur" stdDeviation="1.500000" in="fbSourceGraphicAlpha" id="feGaussianBlur3858"/>
      <feColorMatrix values="1 0 0 0 0 0 1 0 0 0 0 0 1 0 0 0 0 0 0.500000 0 " type="matrix" result="bluralpha" id="feColorMatrix3860"/>
      <feOffset result="offsetBlur" dy="0.50000" dx="0.50000" in="bluralpha" id="feOffset3862"/>
      <feMerge id="feMerge3864">
        <feMergeNode in="offsetBlur" id="feMergeNode3866"/>
        <feMergeNode in="fbSourceGraphic" id="feMergeNode3868"/>
      </feMerge>
    </filter>
    <filter x="-0.5" y="-2" width="2" height="5" color-interpolation-filters="sRGB" id="oglow">
      <feGaussianBlur result="blur" stdDeviation="1.000000" in="SourceAlpha" id="feGaussianBlur4224"/>
      <feColorMatrix values="-1 0 0 0 1 0 -1 0 0 1 0 0 -1 0 1 0 0 0 0.250000 0 " type="matrix" result="bluralpha" id="feColorMatrix4226"/>
      <feOffset result="offsetBlur" dy="0.000000" dx="0.000000" in="bluralpha" id="feOffset4228"/>
      <feMerge id="feMerge4230">
        <feMergeNode in="offsetBlur" id="feMergeNode4232"/>
        <feMergeNode in="SourceGraphic" id="feMergeNode4234"/>
      </feMerge>
    </filter>
  </defs>
  <rect width="120" height="96" ry="8" x="4" y="8" id="outer" style="fill:url(#linearGradient4331);fill-opacity:1;stroke:#2e2222;stroke-width:1;stroke-linejoin:round;stroke-miterlimit:4;stroke-opacity:1;stroke-dasharray:none;filter:url(#filter3722)"/>
  <rect width="100" height="76" ry="1" x="14" y="18" id="term" style="fill:#181818;fill-opacity:1;stroke:#000000;stroke-width:1;stroke-linejoin:round;stroke-miterlimit:4;stroke-opacity:1;stroke-dasharray:none"/>
  <path d="m 113.55042,44 c 0,0 -14.20461,-2.109335 -25.54706,-2.109335 -37.425792,0 -73.52844,9.77847 -73.52844,10.738435 l 0,-34.102922 99.0755,0 0,25.473822 z" id="termhi" style="fill:#282828;fill-opacity:1;stroke:none"/>
  <g transform="translate(8,8)" id="pgt" style="fill:#f9f9f9;fill-opacity:1;stroke:none;filter:url(#oglow)">
    <path d="m 30.225466,26.400877 c 0,-0.52 -0.32,-0.960001 -0.72,-1.24 l -13.32,-8.36 c -0.559999,-0.36 -0.68,-0.4 -1.04,-0.4 -0.639999,0 -1.4,0.480001 -1.4,1.4 0,0.759999 0.520001,1.08 0.96,1.36 l 11.48,7.24 -11.48,7.24 c -0.439999,0.279999 -0.96,0.600001 -0.96,1.36 0,0.919999 0.760001,1.4 1.4,1.4 0.36,0 0.480001,-0.04 1.04,-0.4 l 13.16,-8.28 c 0.36,-0.24 0.88,-0.560001 0.88,-1.32" id="path4136"/>
  </g>
  <g transform="translate(9,15)" id="punderscore" style="fill:#f9f9f9;fill-opacity:1;stroke:none;filter:url(#oglow)">
    <path d="m 49.10015,39.29178 c 0,-1.399999 -1.400001,-1.4 -1.88,-1.4 l -12.72,0 c -0.48,0 -1.88,1e-6 -1.88,1.4 0,1.399998 1.4,1.4 1.88,1.4 l 12.72,0 c 0.479999,0 1.88,-2e-6 1.88,-1.4" id="path3925"/>
  </g>
</svg>